<?xml version="1.0" encoding="utf-8"?>
<!-- Generator: Adobe Illustrator 17.1.0, SVG Export Plug-In . SVG Version: 6.00 Build 0)  -->
<!DOCTYPE svg PUBLIC "-//W3C//DTD SVG 1.1//EN" "http://www.w3.org/Graphics/SVG/1.1/DTD/svg11.dtd">
<svg version="1.1" id="图层_1" xmlns="http://www.w3.org/2000/svg" xmlns:xlink="http://www.w3.org/1999/xlink" x="0px" y="0px"
	 viewBox="56.4 -0.1 86.9 86.9" enable-background="new 56.4 -0.1 86.9 86.9" xml:space="preserve">
<g>
	<g>
		<path fill="none" stroke="#FE0202" stroke-width="3" stroke-miterlimit="10" d="M139.6,68.3l-16.7-10.3h-4.2c0,0-3.4,1.4-6.1,4.2
			c-2.7,2.7-6.1,0-6.1,0L93,50.5L81,37.1c0,0-2.7-3.4,0-6.1s4.2-6.1,4.2-6.1v-4.6L74.6,3.6c0,0-2.5-5-8.3,0
			c-1.9,1.6-8.3,4.8-8.3,12.5c0,7,7.8,26.8,25.4,43.5c16.7,17.6,36.4,25.6,43.4,25.6c7.8,0,10.9-6.4,12.5-8.3
			C144.7,70.9,139.6,68.3,139.6,68.3z"/>
	</g>
</g>
</svg>
