<?xml version="1.0" encoding="utf-8"?>
<!-- Generator: Adobe Illustrator 17.1.0, SVG Export Plug-In . SVG Version: 6.00 Build 0)  -->
<!DOCTYPE svg PUBLIC "-//W3C//DTD SVG 1.1//EN" "http://www.w3.org/Graphics/SVG/1.1/DTD/svg11.dtd">
<svg version="1.1" id="图层_1" xmlns="http://www.w3.org/2000/svg" xmlns:xlink="http://www.w3.org/1999/xlink" x="0px" y="0px"
	 viewBox="94.3 1.2 79.7 85.2" enable-background="new 94.3 1.2 79.7 85.2" xml:space="preserve">
<g>
	<g>
		<path fill="none" stroke="#585B60" stroke-width="3" stroke-miterlimit="10" d="M171.6,60.8c-0.5-3.4-1.5-6.9-2.7-10.2
			c-1.2-2.3-2.5-4.5-4.5-6.5c-2.5-2.3-5.4-3.4-8.8-3.7c-1.5-0.3-2.5,0-3.9,0.8c-1.5,0.8-2.5,1.7-3.9,2.5c-3.9,2.5-8.5,3.7-13.3,3.9
			c-4.5,0-8.5-1.2-12.5-3.4c-1.7-0.8-3.4-2.3-5.4-3.4c-0.8-0.5-2-0.8-3.1-0.8c-3.9,0.3-7.3,1.7-10.2,4.9c-2.3,2.5-3.7,5.4-4.9,8.5
			c-1.5,3.7-2,7.6-2.3,11.5c-0.3,2.7-0.5,5.7,0,8.5c0.5,3.9,2.5,7.1,6.2,9.1c2.7,1.7,5.4,2.3,8.2,2.3c7.9,0,15.9,0,23.8,0
			c7.9,0,15.9,0,23.8,0c1.2,0,2.3,0,3.7-0.3c2.7-0.5,5.4-1.7,7.3-3.9c2.3-2.5,3.4-5.4,3.4-8.8C172.4,68.1,172.4,64.4,171.6,60.8z
			 M134.3,43.8c11.4,0,20.9-9.4,20.9-20.5s-9.4-20.6-20.9-20.6s-20.9,9.6-20.9,20.5C113.3,34.5,122.9,43.8,134.3,43.8z"/>
	</g>
</g>
</svg>
