<?xml version="1.0" encoding="utf-8"?>
<!-- Generator: Adobe Illustrator 17.1.0, SVG Export Plug-In . SVG Version: 6.00 Build 0)  -->
<!DOCTYPE svg PUBLIC "-//W3C//DTD SVG 1.1//EN" "http://www.w3.org/Graphics/SVG/1.1/DTD/svg11.dtd">
<svg version="1.1" id="图层_1" xmlns="http://www.w3.org/2000/svg" xmlns:xlink="http://www.w3.org/1999/xlink" x="0px" y="0px"
	 viewBox="28.3 0 85 85" enable-background="new 28.3 0 85 85" xml:space="preserve">
<g>
	<g>
		<path fill="#FE0202" d="M53.9,19.5H39.6V23h14.3C53.9,23,53.9,19.5,53.9,19.5z M71.4,19.5H57.1V23h14.3V19.5z M103.5,52.7H89.2
			v3.6h14.3C103.5,56.2,103.5,52.7,103.5,52.7z M103.5,67.5H89.2V71h14.3C103.5,71,103.5,67.5,103.5,67.5z M53.9,40.6H39.6v3.6h14.3
			C53.9,44.2,53.9,40.6,53.9,40.6z M71.4,40.6H57.1v3.6h14.3V40.6z M53.9,62H39.6v3.6h14.3C53.9,65.6,53.9,62,53.9,62z M71.4,62
			H57.1v3.6h14.3V62z M111.7,37.9H83.5V1.9c0-1.1-0.8-1.9-1.6-1.9H30c-0.8,0-1.6,0.8-1.6,1.9V85h85V39.8
			C113.4,38.7,112.6,37.9,111.7,37.9z M79.9,81.5h-48V3.6h48.3v77.9H79.9z M109.8,81.5H83.5V41.4h26.3V81.5z"/>
	</g>
</g>
</svg>
