<?xml version="1.0" encoding="utf-8"?>
<!-- Generator: Adobe Illustrator 17.1.0, SVG Export Plug-In . SVG Version: 6.00 Build 0)  -->
<!DOCTYPE svg PUBLIC "-//W3C//DTD SVG 1.1//EN" "http://www.w3.org/Graphics/SVG/1.1/DTD/svg11.dtd">
<svg version="1.1" id="图层_1" xmlns="http://www.w3.org/2000/svg" xmlns:xlink="http://www.w3.org/1999/xlink" x="0px" y="0px"
	 viewBox="63.2 1.2 81.4 86.9" enable-background="new 63.2 1.2 81.4 86.9" xml:space="preserve">
<g>
	<g>
		<path fill="none" stroke="#FE0202" stroke-width="3" stroke-miterlimit="10" d="M142.3,62.1c-0.5-3.5-1.5-7-2.8-10.4
			c-1.2-2.3-2.6-4.6-4.6-6.6c-2.6-2.3-5.5-3.5-9-3.8c-1.5-0.3-2.6,0-4,0.8c-1.5,0.8-2.6,1.7-4,2.6c-4,2.6-8.7,3.8-13.6,4
			c-4.6,0-8.7-1.2-12.8-3.5c-1.7-0.8-3.5-2.3-5.5-3.5c-0.8-0.5-2-0.8-3.2-0.8c-4,0.3-7.5,1.7-10.4,5c-2.3,2.6-3.8,5.5-5,8.7
			c-1.5,3.8-2,7.8-2.3,11.8c-0.3,2.8-0.5,5.8,0,8.7c0.5,4,2.6,7.3,6.3,9.3c2.8,1.7,5.5,2.3,8.4,2.3c8.1,0,16.2,0,24.3,0
			s16.2,0,24.3,0c1.2,0,2.3,0,3.8-0.3c2.8-0.5,5.5-1.7,7.5-4c2.3-2.6,3.5-5.5,3.5-9C143.1,69.6,143.1,65.8,142.3,62.1z M104.1,44.7
			c11.6,0,21.4-9.6,21.4-20.9s-9.6-21.1-21.4-21.1s-21.4,9.8-21.4,20.9C82.7,35.2,92.5,44.7,104.1,44.7z"/>
	</g>
</g>
</svg>
